<mxfile host="Electron" agent="Mozilla/5.0 (Windows NT 10.0; Win64; x64) AppleWebKit/537.36 (KHTML, like Gecko) draw.io/28.2.5 Chrome/138.0.7204.251 Electron/37.6.1 Safari/537.36" version="28.2.5">
  <diagram name="Repair Record Activity Diagram" id="0">
    <mxGraphModel dx="772" dy="509" grid="1" gridSize="10" guides="1" tooltips="1" connect="1" arrows="1" fold="1" page="1" pageScale="1" pageWidth="850" pageHeight="1400" math="0" shadow="0">
      <root>
        <mxCell id="0" />
        <mxCell id="1" parent="0" />
        <mxCell id="swimlane1" value="Workshop Manager" style="swimlane;startSize=30;fontStyle=1;fontSize=12;" parent="1" vertex="1">
          <mxGeometry x="40" y="40" width="280" height="1340" as="geometry" />
        </mxCell>
        <mxCell id="initial" value="" style="ellipse;fillColor=#f5f5f5;strokeColor=#666666;fontColor=#333333;" parent="swimlane1" vertex="1">
          <mxGeometry x="125" y="50" width="30" height="30" as="geometry" />
        </mxCell>
        <mxCell id="act1" value="Enter car search criteria" style="rounded=1;whiteSpace=wrap;html=1;" parent="swimlane1" vertex="1">
          <mxGeometry x="60" y="110" width="160" height="50" as="geometry" />
        </mxCell>
        <mxCell id="edge1" value="" style="edgeStyle=orthogonalEdgeStyle;rounded=0;orthogonalLoop=1;jettySize=auto;html=1;endArrow=classic;endFill=1;" parent="swimlane1" source="initial" target="act1" edge="1">
          <mxGeometry relative="1" as="geometry" />
        </mxCell>
        <mxCell id="decision1" value="Car exists?" style="rhombus;whiteSpace=wrap;html=1;" parent="swimlane1" vertex="1">
          <mxGeometry x="80" y="260" width="120" height="80" as="geometry" />
        </mxCell>
        <mxCell id="act3" value="Select car" style="rounded=1;whiteSpace=wrap;html=1;" parent="swimlane1" vertex="1">
          <mxGeometry x="60" y="380" width="160" height="50" as="geometry" />
        </mxCell>
        <mxCell id="edge4" value="[Yes]" style="edgeStyle=orthogonalEdgeStyle;rounded=0;orthogonalLoop=1;jettySize=auto;html=1;endArrow=classic;endFill=1;" parent="swimlane1" source="decision1" target="act3" edge="1">
          <mxGeometry x="-0.2" relative="1" as="geometry">
            <mxPoint as="offset" />
          </mxGeometry>
        </mxCell>
        <mxCell id="act6" value="Enter new vehicle information" style="rounded=1;whiteSpace=wrap;html=1;" parent="swimlane1" vertex="1">
          <mxGeometry x="60" y="500" width="160" height="50" as="geometry" />
        </mxCell>
        <mxCell id="edge8" value="[No]" style="edgeStyle=orthogonalEdgeStyle;rounded=0;orthogonalLoop=1;jettySize=auto;html=1;endArrow=classic;endFill=1;exitX=0;exitY=0.5;exitDx=0;exitDy=0;entryX=0;entryY=0.5;entryDx=0;entryDy=0;" parent="swimlane1" source="decision1" target="act6" edge="1">
          <mxGeometry x="-0.7" relative="1" as="geometry">
            <mxPoint as="offset" />
            <Array as="points">
              <mxPoint x="20" y="300" />
              <mxPoint x="20" y="525" />
            </Array>
          </mxGeometry>
        </mxCell>
        <mxCell id="decision2" value="Under warranty?" style="rhombus;whiteSpace=wrap;html=1;" parent="swimlane1" vertex="1">
          <mxGeometry x="80" y="620" width="120" height="80" as="geometry" />
        </mxCell>
        <mxCell id="act5" value="Enter repair request date" style="rounded=1;whiteSpace=wrap;html=1;" parent="swimlane1" vertex="1">
          <mxGeometry x="60" y="740" width="160" height="50" as="geometry" />
        </mxCell>
        <mxCell id="edge7" value="[Yes]" style="edgeStyle=orthogonalEdgeStyle;rounded=0;orthogonalLoop=1;jettySize=auto;html=1;endArrow=classic;endFill=1;" parent="swimlane1" source="decision2" target="act5" edge="1">
          <mxGeometry x="-0.2" relative="1" as="geometry">
            <mxPoint as="offset" />
          </mxGeometry>
        </mxCell>
        <mxCell id="edge9" value="" style="edgeStyle=orthogonalEdgeStyle;rounded=0;orthogonalLoop=1;jettySize=auto;html=1;endArrow=classic;endFill=1;entryX=0.5;entryY=0;entryDx=0;entryDy=0;" parent="swimlane1" source="act5" target="N_y7-wPkKm0CQSfb-L4U-3" edge="1">
          <mxGeometry relative="1" as="geometry">
            <mxPoint x="140" y="826.272077938642" as="targetPoint" />
          </mxGeometry>
        </mxCell>
        <mxCell id="edge10" value="[No]" style="edgeStyle=orthogonalEdgeStyle;rounded=0;orthogonalLoop=1;jettySize=auto;html=1;endArrow=classic;endFill=1;exitX=1;exitY=0.5;exitDx=0;exitDy=0;entryX=1;entryY=0.5;entryDx=0;entryDy=0;" parent="swimlane1" source="decision2" target="N_y7-wPkKm0CQSfb-L4U-3" edge="1">
          <mxGeometry x="-0.7333" relative="1" as="geometry">
            <mxPoint as="offset" />
            <Array as="points">
              <mxPoint x="260" y="660" />
              <mxPoint x="260" y="850" />
              <mxPoint x="170" y="850" />
              <mxPoint x="170" y="845" />
            </Array>
            <mxPoint x="170" y="839" as="targetPoint" />
          </mxGeometry>
        </mxCell>
        <mxCell id="act7" value="Enter reception and return dates" style="rounded=1;whiteSpace=wrap;html=1;" parent="swimlane1" vertex="1">
          <mxGeometry x="60" y="880" width="160" height="50" as="geometry" />
        </mxCell>
        <mxCell id="edge12" value="" style="edgeStyle=orthogonalEdgeStyle;rounded=0;orthogonalLoop=1;jettySize=auto;html=1;endArrow=classic;endFill=1;" parent="swimlane1" target="act7" edge="1">
          <mxGeometry relative="1" as="geometry">
            <mxPoint x="140" y="851.727922061358" as="sourcePoint" />
          </mxGeometry>
        </mxCell>
        <mxCell id="act9" value="Select insurance" style="rounded=1;whiteSpace=wrap;html=1;" parent="swimlane1" vertex="1">
          <mxGeometry x="60" y="1120" width="160" height="50" as="geometry" />
        </mxCell>
        <mxCell id="N_y7-wPkKm0CQSfb-L4U-2" value="" style="endArrow=classic;html=1;rounded=0;entryX=0;entryY=0.5;entryDx=0;entryDy=0;" edge="1" parent="swimlane1" source="act6" target="N_y7-wPkKm0CQSfb-L4U-3">
          <mxGeometry width="50" height="50" relative="1" as="geometry">
            <mxPoint x="330" y="660" as="sourcePoint" />
            <mxPoint x="40" y="840" as="targetPoint" />
            <Array as="points">
              <mxPoint x="40" y="540" />
              <mxPoint x="40" y="845" />
            </Array>
          </mxGeometry>
        </mxCell>
        <mxCell id="N_y7-wPkKm0CQSfb-L4U-3" value="" style="rhombus;whiteSpace=wrap;html=1;fillColor=#ffe6cc;strokeColor=#d79b00;" vertex="1" parent="swimlane1">
          <mxGeometry x="130" y="830" width="20" height="30" as="geometry" />
        </mxCell>
        <mxCell id="swimlane2" value="System" style="swimlane;startSize=30;fontStyle=1;fontSize=12;" parent="1" vertex="1">
          <mxGeometry x="320" y="40" width="280" height="1340" as="geometry" />
        </mxCell>
        <mxCell id="act2" value="Provide list of cars matching criteria" style="rounded=1;whiteSpace=wrap;html=1;" parent="swimlane2" vertex="1">
          <mxGeometry x="60" y="190" width="160" height="50" as="geometry" />
        </mxCell>
        <mxCell id="act4" value="Provide vehicle information" style="rounded=1;whiteSpace=wrap;html=1;" parent="swimlane2" vertex="1">
          <mxGeometry x="60" y="380" width="160" height="50" as="geometry" />
        </mxCell>
        <mxCell id="decision3" value="Paid by insurance?" style="rhombus;whiteSpace=wrap;html=1;" parent="swimlane2" vertex="1">
          <mxGeometry x="80" y="970" width="120" height="80" as="geometry" />
        </mxCell>
        <mxCell id="act8" value="Provide list of insurances" style="rounded=1;whiteSpace=wrap;html=1;" parent="swimlane2" vertex="1">
          <mxGeometry x="60" y="1120" width="160" height="50" as="geometry" />
        </mxCell>
        <mxCell id="edge14" value="[Yes]" style="edgeStyle=orthogonalEdgeStyle;rounded=0;orthogonalLoop=1;jettySize=auto;html=1;endArrow=classic;endFill=1;" parent="swimlane2" source="decision3" target="act8" edge="1">
          <mxGeometry x="-0.2" relative="1" as="geometry">
            <mxPoint as="offset" />
          </mxGeometry>
        </mxCell>
        <mxCell id="edge17" value="[No]" style="edgeStyle=orthogonalEdgeStyle;rounded=0;orthogonalLoop=1;jettySize=auto;html=1;endArrow=classic;endFill=1;exitX=1;exitY=0.5;exitDx=0;exitDy=0;entryX=1;entryY=0.5;entryDx=0;entryDy=0;" parent="swimlane2" source="decision3" target="N_y7-wPkKm0CQSfb-L4U-9" edge="1">
          <mxGeometry x="-0.7333" relative="1" as="geometry">
            <mxPoint as="offset" />
            <Array as="points">
              <mxPoint x="260" y="1010" />
              <mxPoint x="260" y="1200" />
            </Array>
            <mxPoint x="200" y="1209" as="targetPoint" />
          </mxGeometry>
        </mxCell>
        <mxCell id="act10" value="Record repair form" style="rounded=1;whiteSpace=wrap;html=1;" parent="swimlane2" vertex="1">
          <mxGeometry x="60" y="1230" width="160" height="50" as="geometry" />
        </mxCell>
        <mxCell id="final" value="" style="ellipse;html=1;fillColor=#000000;strokeColor=#000000;strokeWidth=3;" parent="swimlane2" vertex="1">
          <mxGeometry x="117" y="1300" width="30" height="30" as="geometry" />
        </mxCell>
        <mxCell id="finalInner" value="" style="ellipse;html=1;fillColor=#ffffff;strokeColor=none;" parent="swimlane2" vertex="1">
          <mxGeometry x="130" y="1310" width="20" height="20" as="geometry" />
        </mxCell>
        <mxCell id="N_y7-wPkKm0CQSfb-L4U-9" value="" style="rhombus;whiteSpace=wrap;html=1;fillColor=#ffe6cc;strokeColor=#d79b00;" vertex="1" parent="swimlane2">
          <mxGeometry x="135" y="1190" width="10" height="20" as="geometry" />
        </mxCell>
        <mxCell id="N_y7-wPkKm0CQSfb-L4U-11" value="" style="endArrow=classic;html=1;rounded=0;entryX=0.5;entryY=0;entryDx=0;entryDy=0;" edge="1" parent="swimlane2" source="act10" target="finalInner">
          <mxGeometry width="50" height="50" relative="1" as="geometry">
            <mxPoint x="50" y="1110" as="sourcePoint" />
            <mxPoint x="100" y="1060" as="targetPoint" />
          </mxGeometry>
        </mxCell>
        <mxCell id="N_y7-wPkKm0CQSfb-L4U-12" value="" style="endArrow=classic;html=1;rounded=0;exitX=0.5;exitY=1;exitDx=0;exitDy=0;" edge="1" parent="swimlane2" source="N_y7-wPkKm0CQSfb-L4U-9" target="act10">
          <mxGeometry width="50" height="50" relative="1" as="geometry">
            <mxPoint x="50" y="1110" as="sourcePoint" />
            <mxPoint x="100" y="1060" as="targetPoint" />
          </mxGeometry>
        </mxCell>
        <mxCell id="edge2" value="" style="edgeStyle=orthogonalEdgeStyle;rounded=0;orthogonalLoop=1;jettySize=auto;html=1;endArrow=classic;endFill=1;" parent="1" source="act1" target="act2" edge="1">
          <mxGeometry relative="1" as="geometry" />
        </mxCell>
        <mxCell id="edge3" value="" style="edgeStyle=orthogonalEdgeStyle;rounded=0;orthogonalLoop=1;jettySize=auto;html=1;endArrow=classic;endFill=1;" parent="1" source="act2" target="decision1" edge="1">
          <mxGeometry relative="1" as="geometry" />
        </mxCell>
        <mxCell id="edge5" value="" style="edgeStyle=orthogonalEdgeStyle;rounded=0;orthogonalLoop=1;jettySize=auto;html=1;endArrow=classic;endFill=1;" parent="1" source="act3" target="act4" edge="1">
          <mxGeometry relative="1" as="geometry" />
        </mxCell>
        <mxCell id="edge13" value="" style="edgeStyle=orthogonalEdgeStyle;rounded=0;orthogonalLoop=1;jettySize=auto;html=1;endArrow=classic;endFill=1;" parent="1" source="act7" target="decision3" edge="1">
          <mxGeometry relative="1" as="geometry" />
        </mxCell>
        <mxCell id="edge15" value="" style="edgeStyle=orthogonalEdgeStyle;rounded=0;orthogonalLoop=1;jettySize=auto;html=1;endArrow=classic;endFill=1;" parent="1" source="act8" target="act9" edge="1">
          <mxGeometry relative="1" as="geometry" />
        </mxCell>
        <mxCell id="N_y7-wPkKm0CQSfb-L4U-1" value="" style="endArrow=classic;html=1;rounded=0;" edge="1" parent="1" source="act4" target="decision2">
          <mxGeometry width="50" height="50" relative="1" as="geometry">
            <mxPoint x="370" y="690" as="sourcePoint" />
            <mxPoint x="420" y="640" as="targetPoint" />
            <Array as="points">
              <mxPoint x="460" y="610" />
              <mxPoint x="180" y="610" />
            </Array>
          </mxGeometry>
        </mxCell>
        <mxCell id="N_y7-wPkKm0CQSfb-L4U-8" value="" style="endArrow=classic;html=1;rounded=0;entryX=0;entryY=0.5;entryDx=0;entryDy=0;" edge="1" parent="1" source="act9" target="N_y7-wPkKm0CQSfb-L4U-9">
          <mxGeometry width="50" height="50" relative="1" as="geometry">
            <mxPoint x="370" y="1150" as="sourcePoint" />
            <mxPoint x="420" y="1100" as="targetPoint" />
            <Array as="points">
              <mxPoint x="180" y="1240" />
            </Array>
          </mxGeometry>
        </mxCell>
      </root>
    </mxGraphModel>
  </diagram>
</mxfile>
